<svg width="32" height="33" viewBox="0 0 32 33" fill="none" xmlns="http://www.w3.org/2000/svg">
<path d="M16.0059 10.0833V28.7499" stroke="#057AC0" stroke-width="2.66667" stroke-linecap="round" stroke-linejoin="round"/>
<path d="M4.00521 24.75C3.65159 24.75 3.31245 24.6095 3.0624 24.3595C2.81235 24.1094 2.67188 23.7703 2.67188 23.4167V6.08333C2.67188 5.72971 2.81235 5.39057 3.0624 5.14052C3.31245 4.89048 3.65159 4.75 4.00521 4.75H10.6719C12.0864 4.75 13.4429 5.3119 14.4431 6.3121C15.4433 7.31229 16.0052 8.66885 16.0052 10.0833C16.0052 8.66885 16.5671 7.31229 17.5673 6.3121C18.5675 5.3119 19.9241 4.75 21.3385 4.75H28.0052C28.3588 4.75 28.698 4.89048 28.948 5.14052C29.1981 5.39057 29.3385 5.72971 29.3385 6.08333V23.4167C29.3385 23.7703 29.1981 24.1094 28.948 24.3595C28.698 24.6095 28.3588 24.75 28.0052 24.75H20.0052C18.9443 24.75 17.9269 25.1714 17.1768 25.9216C16.4266 26.6717 16.0052 27.6891 16.0052 28.75C16.0052 27.6891 15.5838 26.6717 14.8336 25.9216C14.0835 25.1714 13.0661 24.75 12.0052 24.75H4.00521Z" stroke="#057AC0" stroke-width="2.66667" stroke-linecap="round" stroke-linejoin="round"/>
</svg>
