<svg width="33" height="33" viewBox="0 0 33 33" fill="none" xmlns="http://www.w3.org/2000/svg">
<path d="M6.66471 22.7499C4.66471 24.4299 3.99805 29.4166 3.99805 29.4166C3.99805 29.4166 8.98471 28.7499 10.6647 26.7499C11.6114 25.6299 11.598 23.9099 10.5447 22.8699C10.0265 22.3753 9.34377 22.0895 8.62768 22.0673C7.91159 22.0452 7.21255 22.2883 6.66471 22.7499Z" stroke="#057AC0" stroke-width="2.66667" stroke-linecap="round" stroke-linejoin="round"/>
<path d="M16.6641 20.7499L12.6641 16.7499C13.3736 14.9092 14.267 13.1447 15.3307 11.4833C16.8843 8.99924 19.0476 6.95399 21.6147 5.54205C24.1819 4.1301 27.0676 3.39842 29.9974 3.41659C29.9974 7.04326 28.9574 13.4166 21.9974 18.0833C20.3132 19.1482 18.5265 20.0416 16.6641 20.7499Z" stroke="#057AC0" stroke-width="2.66667" stroke-linecap="round" stroke-linejoin="round"/>
<path d="M12.6647 16.7499H5.99805C5.99805 16.7499 6.73138 12.7099 8.66471 11.4166C10.8247 9.97661 15.3314 11.4166 15.3314 11.4166" stroke="#057AC0" stroke-width="2.66667" stroke-linecap="round" stroke-linejoin="round"/>
<path d="M16.6641 20.7499V27.4166C16.6641 27.4166 20.7041 26.6833 21.9974 24.7499C23.4374 22.5899 21.9974 18.0833 21.9974 18.0833" stroke="#057AC0" stroke-width="2.66667" stroke-linecap="round" stroke-linejoin="round"/>
</svg>
