<svg width="33" height="32" viewBox="0 0 33 32" fill="none" xmlns="http://www.w3.org/2000/svg">
<path d="M16.3353 29.3333C23.6991 29.3333 29.6686 23.3638 29.6686 16C29.6686 8.63616 23.6991 2.66663 16.3353 2.66663C8.97149 2.66663 3.00195 8.63616 3.00195 16C3.00195 23.3638 8.97149 29.3333 16.3353 29.3333Z" stroke="#057AC0" stroke-width="2.66667" stroke-linecap="round" stroke-linejoin="round"/>
<path d="M16.3359 24C20.7542 24 24.3359 20.4183 24.3359 16C24.3359 11.5817 20.7542 8 16.3359 8C11.9177 8 8.33594 11.5817 8.33594 16C8.33594 20.4183 11.9177 24 16.3359 24Z" stroke="#057AC0" stroke-width="2.66667" stroke-linecap="round" stroke-linejoin="round"/>
<path d="M16.3366 18.6667C17.8093 18.6667 19.0033 17.4728 19.0033 16C19.0033 14.5273 17.8093 13.3334 16.3366 13.3334C14.8638 13.3334 13.6699 14.5273 13.6699 16C13.6699 17.4728 14.8638 18.6667 16.3366 18.6667Z" stroke="#057AC0" stroke-width="2.66667" stroke-linecap="round" stroke-linejoin="round"/>
</svg>
