<svg width="33" height="33" viewBox="0 0 33 33" fill="none" xmlns="http://www.w3.org/2000/svg">
<path d="M15.002 23.4166L17.6686 26.0833C17.9313 26.3459 18.2431 26.5542 18.5862 26.6964C18.9294 26.8385 19.2972 26.9117 19.6686 26.9117C20.0401 26.9117 20.4079 26.8385 20.751 26.6964C21.0942 26.5542 21.406 26.3459 21.6686 26.0833C21.9313 25.8206 22.1396 25.5088 22.2817 25.1656C22.4239 24.8225 22.497 24.4547 22.497 24.0833C22.497 23.7118 22.4239 23.344 22.2817 23.0009C22.1396 22.6577 21.9313 22.3459 21.6686 22.0833" stroke="#057AC0" stroke-width="2.66667" stroke-linecap="round" stroke-linejoin="round"/>
<path d="M19.0029 19.4166L22.3362 22.7499C22.8667 23.2804 23.5861 23.5784 24.3362 23.5784C25.0864 23.5784 25.8058 23.2804 26.3362 22.7499C26.8667 22.2195 27.1647 21.5001 27.1647 20.7499C27.1647 19.9998 26.8667 19.2804 26.3362 18.7499L21.1629 13.5766C20.4129 12.8275 19.3962 12.4068 18.3362 12.4068C17.2762 12.4068 16.2596 12.8275 15.5096 13.5766L14.3362 14.7499C13.8058 15.2804 13.0864 15.5784 12.3362 15.5784C11.5861 15.5784 10.8667 15.2804 10.3362 14.7499C9.80581 14.2195 9.50781 13.5001 9.50781 12.7499C9.50781 11.9998 9.80581 11.2804 10.3362 10.7499L14.0829 7.00327C15.2992 5.79013 16.8854 5.01734 18.5904 4.80724C20.2954 4.59713 22.0218 4.96171 23.4962 5.84327L24.1229 6.21661C24.6906 6.55925 25.3656 6.6781 26.0162 6.54994L28.3362 6.08327" stroke="#057AC0" stroke-width="2.66667" stroke-linecap="round" stroke-linejoin="round"/>
<path d="M28.3353 4.75L29.6686 19.4167H27.002" stroke="#057AC0" stroke-width="2.66667" stroke-linecap="round" stroke-linejoin="round"/>
<path d="M4.33529 4.75L3.00195 19.4167L11.6686 28.0833C12.1991 28.6138 12.9185 28.9118 13.6686 28.9118C14.4188 28.9118 15.1382 28.6138 15.6686 28.0833C16.1991 27.5529 16.497 26.8335 16.497 26.0833C16.497 25.3332 16.1991 24.6138 15.6686 24.0833" stroke="#057AC0" stroke-width="2.66667" stroke-linecap="round" stroke-linejoin="round"/>
<path d="M4.33594 6.08325H15.0026" stroke="#057AC0" stroke-width="2.66667" stroke-linecap="round" stroke-linejoin="round"/>
</svg>
